<svg width="618" height="267" viewBox="0 0 618 267" fill="none" xmlns="http://www.w3.org/2000/svg">
<path d="M257.5 52.2099L206 103.668L154.5 52.2099L206 0.751831L257.5 52.2099Z" fill="#E0E0E0"/>
<g style="mix-blend-mode:overlay">
<path d="M257.5 52.2099L206 103.668L154.5 52.2099L206 0.751831L257.5 52.2099Z" fill="#E0E0E0"/>
</g>
<path d="M360.5 52.2099L309 103.668L257.5 52.2099L309 0.751831L360.5 52.2099Z" fill="#E0E0E0"/>
<g style="mix-blend-mode:overlay">
<path d="M360.5 52.2099L309 103.668L257.5 52.2099L309 0.751831L360.5 52.2099Z" fill="#E0E0E0"/>
</g>
<path d="M206 155.126C206 183.545 182.943 206.584 154.5 206.584H103V103.668H154.5C182.943 103.668 206 126.706 206 155.126Z" fill="#E0E0E0"/>
<g style="mix-blend-mode:overlay">
<path d="M206 155.126C206 183.545 182.943 206.584 154.5 206.584H103V103.668H154.5C182.943 103.668 206 126.706 206 155.126Z" fill="#E0E0E0"/>
</g>
<path d="M179.735 155.126C179.735 169.336 168.206 180.855 153.985 180.855H128.235V155.126C128.235 140.916 139.764 129.397 153.985 129.397C168.206 129.397 179.735 140.916 179.735 155.126Z" fill="#E0E0E0"/>
<g style="mix-blend-mode:overlay">
<path d="M179.735 155.126C179.735 169.336 168.206 180.855 153.985 180.855H128.235V155.126C128.235 140.916 139.764 129.397 153.985 129.397C168.206 129.397 179.735 140.916 179.735 155.126Z" fill="#E0E0E0"/>
</g>
<path d="M309 206.584C365.885 206.584 412 252.544 412 309.237V309.5H206V309.237C206 252.544 252.115 206.584 309 206.584Z" fill="#E0E0E0"/>
<g style="mix-blend-mode:overlay">
<path d="M309 206.584C365.885 206.584 412 252.544 412 309.237V309.5H206V309.237C206 252.544 252.115 206.584 309 206.584Z" fill="#E0E0E0"/>
</g>
<path d="M309.258 206.327C252.372 206.327 206.258 160.48 206.258 103.925L412.258 103.925C412.258 160.48 366.143 206.327 309.258 206.327Z" fill="#E0E0E0"/>
<g style="mix-blend-mode:overlay">
<path d="M309.258 206.327C252.372 206.327 206.258 160.48 206.258 103.925L412.258 103.925C412.258 160.48 366.143 206.327 309.258 206.327Z" fill="#E0E0E0"/>
</g>
<path d="M103 103.668V0.751831L206 0.751831L103 103.668Z" fill="#E0E0E0"/>
<g style="mix-blend-mode:overlay">
<path d="M103 103.668V0.751831L206 0.751831L103 103.668Z" fill="#E0E0E0"/>
</g>
<path d="M515 206.584V309.5H618V206.584L515 206.584Z" fill="#E0E0E0"/>
<g style="mix-blend-mode:overlay">
<path d="M515 206.584V309.5H618V206.584L515 206.584Z" fill="#E0E0E0"/>
</g>
<path d="M565.985 232.313L591.735 258.042L565.985 283.771L540.235 258.042L565.985 232.313Z" fill="#E0E0E0"/>
<g style="mix-blend-mode:overlay">
<path d="M565.985 232.313L591.735 258.042L565.985 283.771L540.235 258.042L565.985 232.313Z" fill="#E0E0E0"/>
</g>
<path d="M309 129.397L334.75 155.126L309 180.855L283.25 155.126L309 129.397Z" fill="#E0E0E0"/>
<path d="M566.5 52.2099L618 103.668V0.751831L566.5 52.2099Z" fill="#E0E0E0"/>
<path d="M463.5 52.2099L515 103.668L566.5 52.2099L515 0.751831L463.5 52.2099Z" fill="#E0E0E0"/>
<path d="M51.5 206.584C79.9427 206.584 103 229.623 103 258.042V309.5H51.5C23.0573 309.5 0 286.461 0 258.042C0 229.623 23.0573 206.584 51.5 206.584Z" fill="#E0E0E0"/>
<path d="M0 103.668C0 46.8289 46.1147 0.751831 103 0.751831V206.584C46.1147 206.584 0 160.507 0 103.668Z" fill="#E0E0E0"/>
<g style="mix-blend-mode:overlay">
<path d="M0 103.668C0 46.8289 46.1147 0.751831 103 0.751831V206.584C46.1147 206.584 0 160.507 0 103.668Z" fill="#E0E0E0"/>
</g>
<path d="M515 103.668V0.751831L412 0.751831L515 103.668Z" fill="#E0E0E0"/>
<g style="mix-blend-mode:overlay">
<path d="M515 103.668V0.751831L412 0.751831L515 103.668Z" fill="#E0E0E0"/>
</g>
<path d="M618 103.668L515 103.668V206.584L618 103.668Z" fill="#E0E0E0"/>
<g style="mix-blend-mode:overlay">
<path d="M618 103.668L515 103.668V206.584L618 103.668Z" fill="#E0E0E0"/>
</g>
<path d="M309 0.751831H412V103.668L309 0.751831Z" fill="#E0E0E0"/>
<g style="mix-blend-mode:overlay">
<path d="M309 0.751831H412V103.668L309 0.751831Z" fill="#E0E0E0"/>
</g>
<path d="M412 206.584C412 149.745 458.115 103.668 515 103.668V309.5C458.115 309.5 412 263.423 412 206.584Z" fill="#E0E0E0"/>
<path d="M154.5 206.584C182.943 206.584 206 229.623 206 258.042C206 286.461 182.943 309.5 154.5 309.5H103V258.042C103 229.623 126.057 206.584 154.5 206.584Z" fill="#E0E0E0"/>
<path d="M309 283.771C323.221 283.771 334.75 272.252 334.75 258.042C334.75 243.832 323.221 232.313 309 232.313C294.779 232.313 283.25 243.832 283.25 258.042C283.25 272.252 294.779 283.771 309 283.771Z" fill="#E0E0E0"/>
<g style="mix-blend-mode:overlay">
<path d="M309 283.771C323.221 283.771 334.75 272.252 334.75 258.042C334.75 243.832 323.221 232.313 309 232.313C294.779 232.313 283.25 243.832 283.25 258.042C283.25 272.252 294.779 283.771 309 283.771Z" fill="#E0E0E0"/>
</g>
<path d="M153.985 232.313L179.735 258.042L153.985 283.771L128.235 258.042L153.985 232.313Z" fill="#E0E0E0"/>
<g style="mix-blend-mode:overlay">
<path d="M153.985 232.313L179.735 258.042L153.985 283.771L128.235 258.042L153.985 232.313Z" fill="#E0E0E0"/>
</g>
<path d="M566.5 26.4808L592.25 52.2098L566.5 77.9389L540.75 52.2098L566.5 26.4808Z" fill="#E0E0E0"/>
<g style="mix-blend-mode:overlay">
<path d="M566.5 26.4808L592.25 52.2098L566.5 77.9389L540.75 52.2098L566.5 26.4808Z" fill="#E0E0E0"/>
</g>
</svg>
