<svg width="200" height="200" viewBox="0 0 200 200" fill="none" xmlns="http://www.w3.org/2000/svg">
<path d="M99.75 49.8951C99.75 77.4059 122.08 99.7078 149.625 99.7078H199.5V49.8951C199.5 22.3843 177.17 0.0823975 149.625 0.0823975C122.08 0.0823975 99.75 22.3843 99.75 49.8951Z" fill="#EEEEEE" fill-opacity="0.1"/>
<g style="mix-blend-mode:overlay">
<path d="M99.75 49.8951C99.75 77.4059 122.08 99.7078 149.625 99.7078H199.5V49.8951C199.5 22.3843 177.17 0.0823975 149.625 0.0823975C122.08 0.0823975 99.75 22.3843 99.75 49.8951Z" fill="#EEEEEE" fill-opacity="0.1"/>
</g>
<path d="M149.625 199.333C177.17 199.333 199.5 177.031 199.5 149.521V99.7078H149.625C122.08 99.7078 99.75 122.01 99.75 149.521C99.75 177.031 122.08 199.333 149.625 199.333Z" fill="#EEEEEE" fill-opacity="0.1"/>
<path d="M150.124 24.9886L175.061 49.895L150.124 74.8014L125.186 49.895L150.124 24.9886Z" fill="#EEEEEE" fill-opacity="0.1"/>
<path d="M49.875 199.333C77.4202 199.333 99.75 177.031 99.75 149.521L99.75 99.7078L0 99.7078L0 149.521C0 177.031 22.3298 199.333 49.875 199.333Z" fill="#EEEEEE" fill-opacity="0.1"/>
<g style="mix-blend-mode:overlay">
<path d="M49.875 199.333C77.4202 199.333 99.75 177.031 99.75 149.521L99.75 99.7078L0 99.7078L0 149.521C0 177.031 22.3298 199.333 49.875 199.333Z" fill="#EEEEEE" fill-opacity="0.1"/>
</g>
<path d="M0 0.0823975L0 99.7078L99.75 99.7078L0 0.0823975Z" fill="#EEEEEE" fill-opacity="0.1"/>
<path d="M99.75 99.7078V0.0823593H0L99.75 99.7078Z" fill="#EEEEEE" fill-opacity="0.1"/>
<g style="mix-blend-mode:overlay">
<path d="M99.75 99.7078V0.0823593H0L99.75 99.7078Z" fill="#EEEEEE" fill-opacity="0.1"/>
</g>
<path d="M149.625 174.427C163.398 174.427 174.562 163.276 174.562 149.521C174.562 135.765 163.398 124.614 149.625 124.614C135.852 124.614 124.688 135.765 124.688 149.521C124.688 163.276 135.852 174.427 149.625 174.427Z" fill="#EEEEEE" fill-opacity="0.1"/>
<g style="mix-blend-mode:overlay">
<path d="M149.625 174.427C163.398 174.427 174.562 163.276 174.562 149.521C174.562 135.765 163.398 124.614 149.625 124.614C135.852 124.614 124.688 135.765 124.688 149.521C124.688 163.276 135.852 174.427 149.625 174.427Z" fill="#EEEEEE" fill-opacity="0.1"/>
</g>
<path d="M49.875 124.614L74.8125 149.521L49.875 174.427L24.9375 149.521L49.875 124.614Z" fill="#EEEEEE" fill-opacity="0.1"/>
<g style="mix-blend-mode:overlay">
<path d="M49.875 124.614L74.8125 149.521L49.875 174.427L24.9375 149.521L49.875 124.614Z" fill="#EEEEEE" fill-opacity="0.1"/>
</g>
</svg>
