<svg width="170" height="169" viewBox="0 0 170 169" fill="none" xmlns="http://www.w3.org/2000/svg">
<path d="M84.8943 42.25C84.8943 65.584 103.834 84.5 127.197 84.5H169.5V42.25C169.5 18.916 150.56 0 127.197 0C103.834 0 84.8943 18.916 84.8943 42.25Z" fill="#EEEEEE"/>
<g style="mix-blend-mode:overlay">
<path d="M84.8943 42.25C84.8943 65.584 103.834 84.5 127.197 84.5H169.5V42.25C169.5 18.916 150.56 0 127.197 0C103.834 0 84.8943 18.916 84.8943 42.25Z" fill="#EEEEEE"/>
</g>
<path d="M127.197 169C150.56 169 169.5 150.084 169.5 126.75V84.4999H127.197C103.834 84.4999 84.8943 103.416 84.8943 126.75C84.8943 150.084 103.834 169 127.197 169Z" fill="#EEEEEE"/>
<path d="M127.62 21.1249L148.772 42.25L127.62 63.375L106.469 42.25L127.62 21.1249Z" fill="#EEEEEE"/>
<path d="M42.5915 169C65.9547 169 84.8943 150.084 84.8943 126.75L84.8943 84.4999L0.288696 84.4999L0.288696 126.75C0.288696 150.084 19.2283 169 42.5915 169Z" fill="#EEEEEE"/>
<g style="mix-blend-mode:overlay">
<path d="M42.5915 169C65.9547 169 84.8943 150.084 84.8943 126.75L84.8943 84.4999L0.288696 84.4999L0.288696 126.75C0.288696 150.084 19.2283 169 42.5915 169Z" fill="#EEEEEE"/>
</g>
<path d="M0.288696 0L0.288696 84.5L84.8943 84.5L0.288696 0Z" fill="#EEEEEE"/>
<path d="M84.8943 84.4999V-2.28882e-05H0.288712L84.8943 84.4999Z" fill="#EEEEEE"/>
<g style="mix-blend-mode:overlay">
<path d="M84.8943 84.4999V-2.28882e-05H0.288712L84.8943 84.4999Z" fill="#EEEEEE"/>
</g>
<path d="M127.197 147.875C138.879 147.875 148.349 138.417 148.349 126.75C148.349 115.083 138.879 105.625 127.197 105.625C115.516 105.625 106.046 115.083 106.046 126.75C106.046 138.417 115.516 147.875 127.197 147.875Z" fill="#EEEEEE"/>
<g style="mix-blend-mode:overlay">
<path d="M127.197 147.875C138.879 147.875 148.349 138.417 148.349 126.75C148.349 115.083 138.879 105.625 127.197 105.625C115.516 105.625 106.046 115.083 106.046 126.75C106.046 138.417 115.516 147.875 127.197 147.875Z" fill="#EEEEEE"/>
</g>
<path d="M42.5915 105.625L63.7429 126.75L42.5915 147.875L21.4401 126.75L42.5915 105.625Z" fill="#EEEEEE"/>
<g style="mix-blend-mode:overlay">
<path d="M42.5915 105.625L63.7429 126.75L42.5915 147.875L21.4401 126.75L42.5915 105.625Z" fill="#EEEEEE"/>
</g>
</svg>
